v 0.577350 0.577350 0.577350
v 0.577350 0.577350 -0.577350
v 0.577350 -0.577350 0.577350
v 0.577350 -0.577350 -0.577350
v -0.577350 0.577350 0.577350
v -0.577350 0.577350 -0.577350
v -0.577350 -0.577350 0.577350
v -0.577350 -0.577350 -0.577350
v 0.000000 0.356822 0.934172
v 0.000000 0.356822 -0.934172
v 0.000000 -0.356822 0.934172
v 0.000000 -0.356822 -0.934172
v 0.356822 0.934172 0.000000
v 0.356822 -0.934172 0.000000
v -0.356822 0.934172 0.000000
v -0.356822 -0.934172 0.000000
v 0.934172 0.000000 0.356822
v 0.934172 0.000000 -0.356822
v -0.934172 0.000000 0.356822
v -0.934172 0.000000 -0.356822
vn 0.577350 0.577350 0.577350
vn 0.577350 0.577350 -0.577350
vn 0.577350 -0.577350 0.577350
vn 0.577350 -0.577350 -0.577350
vn -0.577350 0.577350 0.577350
vn -0.577350 0.577350 -0.577350
vn -0.577350 -0.577350 0.577350
vn -0.577350 -0.577350 -0.577350
vn 0.000000 0.356822 0.934172
vn 0.000000 0.356822 -0.934172
vn 0.000000 -0.356822 0.934172
vn 0.000000 -0.356822 -0.934172
vn 0.356822 0.934172 0.000000
vn 0.356822 -0.934172 0.000000
vn -0.356822 0.934172 0.000000
vn -0.356822 -0.934172 0.000000
vn 0.934172 0.000000 0.356822
vn 0.934172 0.000000 -0.356822
vn -0.934172 0.000000 0.356822
vn -0.934172 0.000000 -0.356822
vt 0.000000 0.000000
vt 0.000000 0.000000
vt 0.000000 0.000000
vt 0.000000 0.000000
vt 0.000000 0.000000
vt 0.000000 0.000000
vt 0.000000 0.000000
vt 0.000000 0.000000
vt 0.000000 0.000000
vt 0.000000 0.000000
vt 0.000000 0.000000
vt 0.000000 0.000000
vt 0.000000 0.000000
vt 0.000000 0.000000
vt 0.000000 0.000000
vt 0.000000 0.000000
vt 0.000000 0.000000
vt 0.000000 0.000000
vt 0.000000 0.000000
vt 0.000000 0.000000
f 1/1/1 9/9/9 11/11/11 3/3/3 17/17/17
f 1/1/1 17/17/17 18/18/18 2/2/2 13/13/13
f 1/1/1 13/13/13 15/15/15 5/5/5 9/9/9
f 18/18/18 4/4/4 12/12/12 10/10/10 2/2/2
f 3/3/3 11/11/11 7/7/7 16/16/16 14/14/14
f 14/14/14 16/16/16 8/8/8 12/12/12 4/4/4
f 18/18/18 17/17/17 3/3/3 14/14/14 4/4/4
f 15/15/15 6/6/6 20/20/20 19/19/19 5/5/5
f 10/10/10 12/12/12 8/8/8 20/20/20 6/6/6
f 19/19/19 20/20/20 8/8/8 16/16/16 7/7/7
f 13/13/13 2/2/2 10/10/10 6/6/6 15/15/15
f 5/5/5 19/19/19 7/7/7 11/11/11 9/9/9
