v 0.000000 0.499659 -0.297936
v 0.000000 0.520153 -0.277767
v 0.000000 0.499659 -0.277117
v 0.000000 0.520153 0.306470
v 0.000000 0.499659 0.326638
v 0.000000 0.499659 0.305819
v -0.221399 0.499659 0.236075
v -0.207079 0.520153 0.221755
v -0.291794 0.520153 0.014351
v -0.311962 0.499659 0.014351
v -0.206617 0.499659 0.221293
v -0.291143 0.499659 0.014351
v -0.221399 0.499659 -0.207373
v -0.207079 0.520153 -0.193053
v -0.206617 0.499659 -0.192591
v 0.000000 0.187372 -0.402032
v 0.000000 0.337660 -0.369502
v 0.000000 0.337660 0.398204
v 0.000000 0.187372 0.430734
v -0.295307 0.187372 0.309983
v -0.272211 0.337660 0.286887
v -0.383528 0.337660 0.014351
v -0.416058 0.187372 0.014351
v -0.295307 0.187372 -0.281281
v -0.272211 0.337660 -0.258184
v 0.000000 0.031229 -0.297936
v 0.000000 0.080024 -0.349984
v 0.000000 0.080024 0.378686
v 0.000000 0.031229 0.326638
v -0.221399 0.031229 0.236075
v -0.258353 0.080024 0.273029
v -0.364010 0.080024 0.014351
v -0.311962 0.031229 0.014351
v -0.221399 0.031229 -0.207373
v -0.258353 0.080024 -0.244327
v 0.000000 0.456720 0.560854
v 0.000000 0.374745 0.638925
v 0.000000 0.468431 0.326638
v 0.000325 0.374745 0.576468
v 0.000325 0.415732 0.516613
v 0.000325 0.421588 0.347457
v -0.046518 0.374745 0.607697
v -0.046518 0.436226 0.538733
v -0.046518 0.445009 0.337048
v 0.000000 0.241047 0.582974
v 0.000000 0.106101 0.385776
v 0.000325 0.281058 0.542637
v -0.046518 0.137330 0.396186
v -0.046518 0.261052 0.562805
v 0.000000 0.300576 -0.545163
v 0.000000 0.499659 -0.672680
v 0.000000 0.124915 -0.339574
v 0.000000 0.499659 -0.547766
v 0.000000 0.374745 -0.482706
v 0.000000 0.296673 -0.339574
v -0.038711 0.499659 -0.610223
v -0.070721 0.337660 -0.513934
v -0.102730 0.210794 -0.339574
v 0.000000 0.515762 -0.699355
v 0.000000 0.499659 -0.651861
v 0.000000 0.499659 -0.568585
v 0.000000 0.511370 -0.573789
v -0.023097 0.499659 -0.610223
v -0.030904 0.513566 -0.636572
v 0.000000 0.655803 0.014351
v 0.000000 0.562117 -0.027287
v 0.000000 0.620671 -0.053311
v 0.000000 0.620671 0.082013
v 0.000000 0.562117 0.055989
v -0.029238 0.562117 0.043914
v -0.047774 0.620671 0.062450
v -0.067337 0.620671 0.014351
v -0.041314 0.562117 0.014351
v -0.029238 0.562117 -0.015212
v -0.047774 0.620671 -0.033748
v 0.000000 0.499659 -0.256298
v 0.000000 0.530888 -0.157407
v 0.000000 0.530888 0.186109
v 0.000000 0.499659 0.285000
v -0.191836 0.499659 0.206512
v -0.121623 0.530888 0.136299
v -0.171433 0.530888 0.014351
v -0.270324 0.499659 0.014351
v -0.191836 0.499659 -0.177809
v -0.121623 0.530888 -0.107597
v -0.189526 0.009759 -0.175500
v -0.267071 0.009759 0.014351
v 0.000000 0.000000 0.014351
v 0.000000 0.009759 -0.253045
v -0.189526 0.009759 0.204202
v 0.000000 0.009759 0.281747
v 0.000000 0.373252 -0.569317
v 0.000000 0.402004 -0.518225
v -0.016164 0.387628 -0.543771
v 0.221399 0.499659 0.236075
v 0.207079 0.520153 0.221755
v 0.291794 0.520153 0.014351
v 0.311962 0.499659 0.014351
v 0.206617 0.499659 0.221293
v 0.291143 0.499659 0.014351
v 0.221399 0.499659 -0.207373
v 0.207079 0.520153 -0.193053
v 0.206617 0.499659 -0.192591
v 0.295307 0.187372 0.309983
v 0.272211 0.337660 0.286887
v 0.383528 0.337660 0.014351
v 0.416058 0.187372 0.014351
v 0.295307 0.187372 -0.281281
v 0.272211 0.337660 -0.258184
v 0.221399 0.031229 0.236075
v 0.258353 0.080024 0.273029
v 0.364010 0.080024 0.014351
v 0.311962 0.031229 0.014351
v 0.221399 0.031229 -0.207373
v 0.258353 0.080024 -0.244327
v -0.000325 0.374745 0.576468
v -0.000325 0.415732 0.516613
v -0.000325 0.421588 0.347457
v 0.046518 0.374745 0.607697
v 0.046518 0.436226 0.538733
v 0.046518 0.445009 0.337048
v -0.000325 0.281058 0.542637
v 0.046518 0.137330 0.396186
v 0.046518 0.261052 0.562805
v 0.038711 0.499659 -0.610223
v 0.070721 0.337660 -0.513934
v 0.102730 0.210794 -0.339574
v 0.023097 0.499659 -0.610223
v 0.030904 0.513566 -0.636572
v 0.029238 0.562117 0.043914
v 0.047774 0.620671 0.062450
v 0.067337 0.620671 0.014351
v 0.041314 0.562117 0.014351
v 0.029238 0.562117 -0.015212
v 0.047774 0.620671 -0.033748
v 0.191836 0.499659 0.206512
v 0.121623 0.530888 0.136299
v 0.171433 0.530888 0.014351
v 0.270324 0.499659 0.014351
v 0.191836 0.499659 -0.177809
v 0.121623 0.530888 -0.107597
v 0.189526 0.009759 -0.175500
v 0.267071 0.009759 0.014351
v 0.189526 0.009759 0.204202
v 0.016164 0.387628 -0.543771
vn -0.000000 0.542600 -0.840000
vn -0.000000 0.990000 0.141400
vn -0.000000 0.642900 0.766000
vn -0.000000 0.990000 -0.141400
vn -0.000000 0.542600 0.840000
vn -0.000000 0.642900 -0.766000
vn -0.593700 0.543500 0.593400
vn 0.096700 0.990600 -0.096700
vn 0.141600 0.989900 -0.000000
vn -0.840000 0.542500 -0.000000
vn 0.542600 0.641400 -0.542300
vn 0.765900 0.642900 -0.000000
vn -0.593700 0.543500 -0.593400
vn 0.096700 0.990600 0.096700
vn 0.542600 0.641400 0.542300
vn -0.000000 -0.110500 -0.993900
vn -0.000000 0.302500 -0.953200
vn -0.000000 0.302500 0.953200
vn -0.000000 0.771000 0.636900
vn -0.702900 -0.110700 0.702600
vn -0.673900 0.303300 0.673600
vn -0.953200 0.302500 -0.000000
vn -0.993900 -0.110500 -0.000000
vn -0.702900 -0.110700 -0.702600
vn -0.673900 0.303300 -0.673600
vn -0.000000 -0.808300 -0.588800
vn -0.000000 -0.572600 -0.819800
vn -0.000000 -0.572600 0.819800
vn -0.000000 -0.808300 0.588800
vn -0.415800 -0.808900 0.415600
vn -0.579400 -0.573500 0.579100
vn -0.819800 -0.572600 -0.000000
vn -0.588800 -0.808300 -0.000000
vn -0.415800 -0.808900 -0.415600
vn -0.579400 -0.573500 -0.579100
vn -0.000000 0.896700 0.442700
vn -0.000000 0.162400 0.986700
vn -0.000000 0.998900 0.047000
vn -0.565200 -0.269300 -0.779800
vn -0.461600 -0.846600 -0.264800
vn -0.427800 -0.903200 -0.035700
vn -0.956100 0.091800 0.278400
vn -0.982800 0.182900 0.025400
vn -0.961000 0.275700 0.019500
vn -0.000000 -0.632700 0.774400
vn -0.000000 -0.815000 0.579500
vn -0.492000 0.510600 -0.705100
vn -0.724800 -0.570900 0.385700
vn -0.988500 -0.099500 0.113500
vn -0.000000 -0.638900 -0.769300
vn -0.000000 -0.700700 -0.713400
vn -0.000000 -0.754800 -0.656000
vn -0.000000 0.693500 0.720500
vn -0.000000 0.739600 0.673100
vn -0.000000 0.871100 0.491100
vn -0.949800 0.309900 -0.042300
vn -0.988700 0.012200 -0.149600
vn -0.916300 -0.228100 -0.329300
vn -0.000000 0.500600 -0.865700
vn -0.000000 0.898000 0.440000
vn -0.000000 -0.483700 -0.875200
vn -0.000000 0.998000 -0.063600
vn 0.993100 0.060000 -0.101000
vn -0.625100 0.715000 -0.313000
vn -0.000000 1.000000 -0.000000
vn -0.000000 0.537800 -0.843100
vn -0.000000 0.287800 -0.957700
vn -0.000000 0.287800 0.957700
vn -0.000000 0.537800 0.843100
vn -0.596400 0.539300 0.594600
vn -0.678100 0.286700 0.676700
vn -0.957800 0.287400 -0.000000
vn -0.843700 0.536900 -0.000000
vn -0.596400 0.539300 -0.594600
vn -0.678100 0.286700 -0.676700
vn -0.000000 0.993300 -0.115200
vn -0.000000 0.961300 -0.275300
vn -0.000000 0.961300 0.275300
vn -0.000000 0.993300 0.115200
vn -0.080600 0.993500 0.080500
vn -0.194300 0.961500 0.194100
vn -0.275400 0.961300 -0.000000
vn -0.115200 0.993300 -0.000000
vn -0.080600 0.993500 -0.080500
vn -0.194300 0.961500 -0.194100
vn -0.201700 -0.958500 -0.201600
vn -0.285000 -0.958500 -0.000000
vn -0.000000 -1.000000 -0.000000
vn -0.000000 -0.958500 -0.285000
vn -0.201700 -0.958500 0.201600
vn -0.000000 -0.958500 0.285000
vn -0.000000 0.563400 0.826200
vn -0.000000 -0.443300 -0.896400
vn 0.999100 0.037500 -0.018900
vn 0.593700 0.543500 0.593400
vn -0.096700 0.990600 -0.096700
vn -0.141600 0.989900 -0.000000
vn 0.840000 0.542500 -0.000000
vn -0.542600 0.641400 -0.542300
vn -0.765900 0.642900 -0.000000
vn 0.593700 0.543500 -0.593400
vn -0.096700 0.990600 0.096700
vn -0.542600 0.641400 0.542300
vn 0.702900 -0.110700 0.702600
vn 0.673900 0.303300 0.673600
vn 0.953200 0.302500 -0.000000
vn 0.993900 -0.110500 -0.000000
vn 0.702900 -0.110700 -0.702600
vn 0.673900 0.303300 -0.673600
vn 0.415800 -0.808900 0.415600
vn 0.579400 -0.573500 0.579100
vn 0.819800 -0.572600 -0.000000
vn 0.588800 -0.808300 -0.000000
vn 0.415800 -0.808900 -0.415600
vn 0.579400 -0.573500 -0.579100
vn 0.565200 -0.269300 -0.779800
vn 0.461600 -0.846600 -0.264800
vn 0.427800 -0.903200 -0.035700
vn 0.956100 0.091800 0.278400
vn 0.982800 0.182900 0.025400
vn 0.961000 0.275700 0.019500
vn 0.492000 0.510600 -0.705100
vn 0.724800 -0.570900 0.385700
vn 0.988500 -0.099500 0.113500
vn 0.949800 0.309900 -0.042300
vn 0.988700 0.012200 -0.149600
vn 0.916300 -0.228100 -0.329300
vn -0.993100 0.060000 -0.101000
vn 0.625100 0.715000 -0.313000
vn 0.596400 0.539300 0.594600
vn 0.678100 0.286700 0.676700
vn 0.957800 0.287400 -0.000000
vn 0.843700 0.536900 -0.000000
vn 0.596400 0.539300 -0.594600
vn 0.678100 0.286700 -0.676700
vn 0.080600 0.993500 0.080500
vn 0.194300 0.961500 0.194100
vn 0.275400 0.961300 -0.000000
vn 0.115200 0.993300 -0.000000
vn 0.080600 0.993500 -0.080500
vn 0.194300 0.961500 -0.194100
vn 0.201700 -0.958500 -0.201600
vn 0.285000 -0.958500 -0.000000
vn 0.201700 -0.958500 0.201600
vn -0.999100 0.037500 -0.018900
vt 0.741791 0.900836
vt 0.741791 0.953912
vt 0.510625 0.953912
vt 0.510625 0.900836
vt 0.741791 0.995353
vt 0.510625 0.995353
vt 0.994474 0.900836
vt 0.994474 0.953912
vt 0.994474 0.995353
vt 0.269314 0.900836
vt 0.269314 0.953912
vt 0.004610 0.953912
vt 0.004610 0.900836
vt 0.269314 0.995353
vt 0.004610 0.995353
vt 0.741791 0.309027
vt 0.741791 0.595260
vt 0.510625 0.595260
vt 0.510625 0.309027
vt 0.994474 0.309027
vt 0.994474 0.595260
vt 0.269314 0.309027
vt 0.269314 0.595260
vt 0.004610 0.595260
vt 0.004610 0.309027
vt 0.741791 0.018348
vt 0.741791 0.117174
vt 0.510625 0.117174
vt 0.510625 0.018348
vt 0.994474 0.018348
vt 0.994474 0.117174
vt 0.269314 0.018348
vt 0.269314 0.117174
vt 0.004610 0.117174
vt 0.004610 0.018348
vt 0.545326 0.249557
vt 0.471672 0.198938
vt 0.480831 0.115768
vt 0.553113 0.114851
vt 0.339005 0.044503
vt 0.371923 -0.001823
vt 0.551924 0.386672
vt 0.458699 0.290005
vt 0.306249 0.090447
vt 0.770396 0.065533
vt 0.622527 0.193228
vt 0.609697 0.103410
vt 0.748129 0.022799
vt 0.793810 0.116462
vt 0.640156 0.244598
vt 0.514316 0.636833
vt 0.500849 0.703355
vt 0.483284 0.685575
vt 0.496299 0.636996
vt 0.474859 0.774693
vt 0.457089 0.732156
vt 0.531108 0.628140
vt 0.521115 0.713827
vt 0.498949 0.809379
vt 0.512071 0.623562
vt 0.519121 0.628123
vt 0.501814 0.630138
vt 0.500352 0.626253
vt 0.522696 0.616179
vt 0.534588 0.618517
vt 0.697927 0.071635
vt 0.614906 0.588548
vt 0.469134 0.536996
vt 0.471175 0.009312
vt 0.467440 0.975093
vt 0.875005 0.258812
vt 0.796536 0.747075
vt 0.243957 0.067677
vt 0.322974 0.586006
vt 0.140129 0.741357
vt 0.065443 0.251760
vt 0.797989 0.251955
vt 0.701706 0.435380
vt 0.507387 0.334229
vt 0.508295 0.099416
vt 0.566144 0.732025
vt 0.505912 0.715470
vt 0.951817 0.629769
vt 0.809168 0.672934
vt 0.613181 0.781744
vt 0.217441 0.246898
vt 0.312299 0.431988
vt 0.203006 0.667654
vt 0.060701 0.622007
vt 0.445556 0.730973
vt 0.398138 0.779871
vt 0.611046 0.742851
vt 0.580715 0.712725
vt 0.596557 0.523345
vt 0.628235 0.507327
vt 0.509008 0.516835
vt 0.540946 0.997766
vt 0.521884 0.905694
vt 0.608314 0.273159
vt 0.578519 0.335204
vt 0.517469 0.146620
vt 0.535280 0.023481
vt 0.816579 0.217191
vt 0.980806 0.622838
vt 0.508468 0.054769
vt 0.199121 0.211812
vt 0.031766 0.614572
vt 0.490257 0.588382
vt 0.495742 0.580385
vt 0.484279 0.596021
vt 0.000000 0.000000
vt 0.000000 0.000000
vt 0.000000 0.000000
vt 0.000000 0.000000
vt 0.000000 0.000000
vt 0.000000 0.000000
vt 0.000000 0.000000
vt 0.000000 0.000000
vt 0.000000 0.000000
vt 0.000000 0.000000
vt 0.000000 0.000000
vt 0.000000 0.000000
vt 0.000000 0.000000
vt 0.000000 0.000000
vt 0.000000 0.000000
vt 0.000000 0.000000
vt 0.000000 0.000000
vt 0.000000 0.000000
vt 0.000000 0.000000
vt 0.000000 0.000000
vt 0.000000 0.000000
vt 0.000000 0.000000
vt 0.000000 0.000000
vt 0.000000 0.000000
vt 0.000000 0.000000
vt 0.000000 0.000000
vt 0.000000 0.000000
vt 0.000000 0.000000
vt 0.000000 0.000000
vt 0.000000 0.000000
vt 0.000000 0.000000
vt 0.000000 0.000000
vt 0.000000 0.000000
vt 0.000000 0.000000
vt 0.000000 0.000000
f 7/7/7 8/8/8 9/9/9 10/10/10
f 8/8/8 11/11/11 12/12/12 9/9/9
f 5/5/5 4/4/4 8/8/8 7/7/7
f 4/4/4 6/6/6 11/11/11 8/8/8
f 13/13/13 14/14/14 2/2/2 1/1/1
f 14/14/14 15/15/15 3/3/3 2/2/2
f 10/10/10 9/9/9 14/14/14 13/13/13
f 9/9/9 12/12/12 15/15/15 14/14/14
f 20/20/20 21/21/21 22/22/22 23/23/23
f 21/21/21 7/7/7 10/10/10 22/22/22
f 19/19/19 18/18/18 21/21/21 20/20/20
f 18/18/18 5/5/5 7/7/7 21/21/21
f 24/24/24 25/25/25 17/17/17 16/16/16
f 25/25/25 13/13/13 1/1/1 17/17/17
f 23/23/23 22/22/22 25/25/25 24/24/24
f 22/22/22 10/10/10 13/13/13 25/25/25
f 30/30/30 31/31/31 32/32/32 33/33/33
f 31/31/31 20/20/20 23/23/23 32/32/32
f 29/29/29 28/28/28 31/31/31 30/30/30
f 28/28/28 19/19/19 20/20/20 31/31/31
f 34/34/34 35/35/35 27/27/27 26/26/26
f 35/35/35 24/24/24 16/16/16 27/27/27
f 33/33/33 32/32/32 35/35/35 34/34/34
f 32/32/32 23/23/23 24/24/24 35/35/35
f 42/42/42 43/43/43 40/40/40 39/39/39
f 43/43/43 44/44/44 41/41/41 40/40/40
f 37/37/37 36/36/36 43/43/43 42/42/42
f 36/36/36 38/38/38 44/44/44 43/43/43
f 48/48/48 49/49/49 47/47/47 19/19/19
f 49/49/49 42/42/42 39/39/39 47/47/47
f 46/46/46 45/45/45 49/49/49 48/48/48
f 45/45/45 37/37/37 42/42/42 49/49/49
f 56/56/56 57/57/57 54/54/54 53/53/53
f 57/57/57 58/58/58 55/55/55 54/54/54
f 51/51/51 50/50/50 57/57/57 56/56/56
f 50/50/50 52/52/52 58/58/58 57/57/57
f 63/63/63 64/64/64 62/62/62 61/61/61
f 64/64/64 56/56/56 53/53/53 62/62/62
f 60/60/60 59/59/59 64/64/64 63/63/63
f 59/59/59 51/51/51 56/56/56 64/64/64
f 70/70/70 71/71/71 72/72/72 73/73/73
f 71/71/71 65/65/65 72/72/72
f 69/69/69 68/68/68 71/71/71 70/70/70
f 68/68/68 65/65/65 71/71/71
f 74/74/74 75/75/75 67/67/67 66/66/66
f 75/75/75 65/65/65 67/67/67
f 73/73/73 72/72/72 75/75/75 74/74/74
f 72/72/72 65/65/65 75/75/75
f 80/80/80 81/81/81 82/82/82 83/83/83
f 81/81/81 70/70/70 73/73/73 82/82/82
f 79/79/79 78/78/78 81/81/81 80/80/80
f 78/78/78 69/69/69 70/70/70 81/81/81
f 84/84/84 85/85/85 77/77/77 76/76/76
f 85/85/85 74/74/74 66/66/66 77/77/77
f 83/83/83 82/82/82 85/85/85 84/84/84
f 82/82/82 73/73/73 74/74/74 85/85/85
f 34/34/34 86/86/86 87/87/87 33/33/33
f 86/86/86 88/88/88 87/87/87
f 26/26/26 89/89/89 86/86/86 34/34/34
f 89/89/89 88/88/88 86/86/86
f 30/30/30 90/90/90 91/91/91 29/29/29
f 90/90/90 88/88/88 91/91/91
f 33/33/33 87/87/87 90/90/90 30/30/30
f 87/87/87 88/88/88 90/90/90
f 79/79/79 80/80/80 11/11/11 6/6/6
f 80/80/80 83/83/83 12/12/12 11/11/11
f 83/83/83 84/84/84 15/15/15 12/12/12
f 84/84/84 76/76/76 3/3/3 15/15/15
f 60/60/60 63/63/63 94/94/94 92/92/92
f 63/63/63 61/61/61 93/93/93 94/94/94
f 95/95/95 98/98/98 97/97/97 96/96/96
f 96/96/96 97/97/97 100/100/100 99/99/99
f 5/5/5 95/95/95 96/96/96 4/4/4
f 4/4/4 96/96/96 99/99/99 6/6/6
f 101/101/101 1/1/1 2/2/2 102/102/102
f 102/102/102 2/2/2 3/3/3 103/103/103
f 98/98/98 101/101/101 102/102/102 97/97/97
f 97/97/97 102/102/102 103/103/103 100/100/100
f 104/104/104 107/107/107 106/106/106 105/105/105
f 105/105/105 106/106/106 98/98/98 95/95/95
f 19/19/19 104/104/104 105/105/105 18/18/18
f 18/18/18 105/105/105 95/95/95 5/5/5
f 108/108/108 16/16/16 17/17/17 109/109/109
f 109/109/109 17/17/17 1/1/1 101/101/101
f 107/107/107 108/108/108 109/109/109 106/106/106
f 106/106/106 109/109/109 101/101/101 98/98/98
f 110/110/110 113/113/113 112/112/112 111/111/111
f 111/111/111 112/112/112 107/107/107 104/104/104
f 29/29/29 110/110/110 111/111/111 28/28/28
f 28/28/28 111/111/111 104/104/104 19/19/19
f 114/114/114 26/26/26 27/27/27 115/115/115
f 115/115/115 27/27/27 16/16/16 108/108/108
f 113/113/113 114/114/114 115/115/115 112/112/112
f 112/112/112 115/115/115 108/108/108 107/107/107
f 119/119/119 116/116/116 117/117/117 120/120/120
f 120/120/120 117/117/117 118/118/118 121/121/121
f 37/37/37 119/119/119 120/120/120 36/36/36
f 36/36/36 120/120/120 121/121/121 38/38/38
f 123/123/123 19/19/19 122/122/122 124/124/124
f 124/124/124 122/122/122 116/116/116 119/119/119
f 46/46/46 123/123/123 124/124/124 45/45/45
f 45/45/45 124/124/124 119/119/119 37/37/37
f 125/125/125 53/53/53 54/54/54 126/126/126
f 126/126/126 54/54/54 55/55/55 127/127/127
f 51/51/51 125/125/125 126/126/126 50/50/50
f 50/50/50 126/126/126 127/127/127 52/52/52
f 128/128/128 61/61/61 62/62/62 129/129/129
f 129/129/129 62/62/62 53/53/53 125/125/125
f 60/60/60 128/128/128 129/129/129 59/59/59
f 59/59/59 129/129/129 125/125/125 51/51/51
f 130/130/130 133/133/133 132/132/132 131/131/131
f 131/131/131 132/132/132 65/65/65
f 69/69/69 130/130/130 131/131/131 68/68/68
f 68/68/68 131/131/131 65/65/65
f 134/134/134 66/66/66 67/67/67 135/135/135
f 135/135/135 67/67/67 65/65/65
f 133/133/133 134/134/134 135/135/135 132/132/132
f 132/132/132 135/135/135 65/65/65
f 136/136/136 139/139/139 138/138/138 137/137/137
f 137/137/137 138/138/138 133/133/133 130/130/130
f 79/79/79 136/136/136 137/137/137 78/78/78
f 78/78/78 137/137/137 130/130/130 69/69/69
f 140/140/140 76/76/76 77/77/77 141/141/141
f 141/141/141 77/77/77 66/66/66 134/134/134
f 139/139/139 140/140/140 141/141/141 138/138/138
f 138/138/138 141/141/141 134/134/134 133/133/133
f 114/114/114 113/113/113 143/143/143 142/142/142
f 142/142/142 143/143/143 88/88/88
f 26/26/26 114/114/114 142/142/142 89/89/89
f 89/89/89 142/142/142 88/88/88
f 110/110/110 29/29/29 91/91/91 144/144/144
f 144/144/144 91/91/91 88/88/88
f 113/113/113 110/110/110 144/144/144 143/143/143
f 143/143/143 144/144/144 88/88/88
f 79/79/79 6/6/6 99/99/99 136/136/136
f 136/136/136 99/99/99 100/100/100 139/139/139
f 139/139/139 100/100/100 103/103/103 140/140/140
f 140/140/140 103/103/103 3/3/3 76/76/76
f 60/60/60 92/92/92 145/145/145 128/128/128
f 128/128/128 145/145/145 93/93/93 61/61/61
